{
  "title": "Mission Impossible 4 Ghost Protocol (2011) DVDRip ",
  "uid": 7146270,
  "size": 1397738539,
  "categoryP": "video",
  "categoryS": "movies",
  "magnet": "?xt=urn:btih:ea760ee4be2ea8b697480b94645ab879a394cc87&amp;dn=Mission+Impossible+4+Ghost+Protocol+%282011%29+DVDRip+&amp;tr=udp%3A%2F%2Ftracker.openbittorrent.com%3A80&amp;tr=udp%3A%2F%2Fopen.demonii.com%3A1337&amp;tr=udp%3A%2F%2Ftracker.coppersurfer.tk%3A6969&amp;tr=udp%3A%2F%2Fexodus.desync.com%3A6969",
  "seeders": 59,
  "leechers": 7,
  "uploader": "extremezone",
  "files": -1,
  "time": 1333154540,
  "description": "Screens:\n &lt;a href=&quot;\nhttp://www.postimg.com/image/64000/photo-63847.jpg&quot; rel=&quot;nofollow&quot; target=&quot;_NEW&quot;&gt;\nhttp://www.postimg.com/image/64000/photo-63847.jpg&lt;/a&gt; &lt;a href=&quot;\nhttp://www.postimg.com/image/64000/photo-63848.jpg&quot; rel=&quot;nofollow&quot; target=&quot;_NEW&quot;&gt;\nhttp://www.postimg.com/image/64000/photo-63848.jpg&lt;/a&gt; &lt;a href=&quot;\nhttp://www.postimg.com/image/64000/photo-63849.jpg&quot; rel=&quot;nofollow&quot; target=&quot;_NEW&quot;&gt;\nhttp://www.postimg.com/image/64000/photo-63849.jpg&lt;/a&gt; &lt;a href=&quot;\nhttp://www.postimg.com/image/64000/photo-63850.jpg&quot; rel=&quot;nofollow&quot; target=&quot;_NEW&quot;&gt;\nhttp://www.postimg.com/image/64000/photo-63850.jpg&lt;/a&gt;\n\nScreenCaps:\n &lt;a href=&quot;\nhttp://www.postimg.com/image/64000/photo-63851.jpg&quot; rel=&quot;nofollow&quot; target=&quot;_NEW&quot;&gt;\nhttp://www.postimg.com/image/64000/photo-63851.jpg&lt;/a&gt;\n\nMission Impossible 4 Ghost Protocol (2011) DVDRip XviD-MAX\nFormat                           : AVI\nFormat/Info                      : Audio Video Interleave\nFormat profile                   : OpenDML\nFile size                        : 1.30 GiB\nDuration                         : 2h 12mn\nOverall bit rate                 : 1 398 Kbps\nWriting application              : VirtualDubMod 1.5.10.2 (build 2542/release)\nWriting library                  : VirtualDubMod build 2542/release\nOriginal source form             : MAX TORRENTZ\nCopyright                        : SIGISMUNT\n\nVideo\nID                               : 0\nFormat                           : MPEG-4 Visual\nFormat profile                   : AdvancedSimple@L5\nFormat settings, BVOP            : Yes\nFormat settings, QPel            : No\nFormat settings, GMC             : No warppoints\nFormat settings, Matrix          : Default (MPEG)\nCodec ID                         : XVID\nCodec ID/Hint                    : XviD\nDuration                         : 2h 12mn\nBit rate                         : 1 009 Kbps\nWidth                            : 640 pixels\nHeight                           : 272 pixels\nDisplay aspect ratio             : 2.35:1\nFrame rate                       : 23.976 fps\nResolution                       : 24 bits\nColorimetry                      : 4:2:0\nScan type                        : Progressive\nBits/(Pixel*Frame)               : 0.242\nStream size                      : 959 MiB (72%)\nWriting library                  : XviD 64\n\nAudio\nID                               : 1\nFormat                           : AC-3\nFormat/Info                      : Audio Coding 3\nCodec ID                         : 2000\nDuration                         : 2h 12mn\nBit rate mode                    : Constant\nBit rate                         : 384 Kbps\nChannel(s)                       : 6 channels\nChannel positions                : Front: L C R, Surround: L R, LFE\nSampling rate                    : 48.0 KHz\nStream size                      : 365 MiB (27%)\nAlignment                        : Aligned on interleaves\nInterleave, duration             : 64 ms (1.53 video frames)\nInterleave, preload duration     : 192 ms\n\nSource: DVD (perfect a/v/sync quality,sample included,hardcoded english\nsubs for few original foreign parts)\nThis torrent is not seedbox supported,please seed it to the MAX\n\nNote: We need anything you can offer as early releases,seedboxes,links,accounts,etc\nplease contact us on piratepedia[@]msn/gmail.com or our website torentz 3xforum ro\n\nMission Impossible 4 Ghost Protocol (2011) DVDRip XviD-MAX Torrent Free Download\n &lt;a href=&quot;\nhttp://thepiratebay.se/user/extremezone/0/7&quot; rel=&quot;nofollow&quot; target=&quot;_NEW&quot;&gt;\nhttp://thepiratebay.se/user/extremezone/0/7&lt;/a&gt;",
  "parsed": {
    "xt": "urn:btih:ea760ee4be2ea8b697480b94645ab879a394cc87",
    "dn": "Mission Impossible 4 Ghost Protocol (2011) DVDRip ",
    "tr": [
      "udp://exodus.desync.com:6969",
      "udp://open.demonii.com:1337",
      "udp://tracker.coppersurfer.tk:6969",
      "udp://tracker.openbittorrent.com:80"
    ],
    "infoHash": "ea760ee4be2ea8b697480b94645ab879a394cc87",
    "infoHashBuffer": {
      "type": "Buffer",
      "data": [
        234,
        118,
        14,
        228,
        190,
        46,
        168,
        182,
        151,
        72,
        11,
        148,
        100,
        90,
        184,
        121,
        163,
        148,
        204,
        135
      ]
    },
    "name": "Mission Impossible 4 Ghost Protocol (2011) DVDRip ",
    "announce": [
      "udp://exodus.desync.com:6969",
      "udp://open.demonii.com:1337",
      "udp://tracker.coppersurfer.tk:6969",
      "udp://tracker.openbittorrent.com:80"
    ],
    "urlList": []
  },
  "previous": 66,
  "peers": 8,
  "last_updated": "2016-12-25T17:07:54.270Z"
}